{"accessors":[{"bufferView":0,"byteOffset":0,"componentType":5126,"count":4,"max":[0.020358962517357058,0.0,-0.020000000000000007],"min":[-0.055,-0.1,-0.020000000000000007],"type":"VEC3"},{"bufferView":0,"byteOffset":48,"componentType":5126,"count":40,"max":[0.08977858983813244,0.0,0.019999999999993533],"min":[0.020358962517357058,-0.1,-0.04999584642230947],"type":"VEC3"},{"bufferView":0,"byteOffset":528,"componentType":5126,"count":4,"max":[-0.055,0.0,0.019999999999993533],"min":[-0.055,-0.1,-0.020000000000000007],"type":"VEC3"},{"bufferView":0,"byteOffset":576,"componentType":5126,"count":50,"max":[0.08977858983813244,0.0,0.019999999999993533],"min":[-0.055,0.0,-0.04999584642230947],"type":"VEC3"},{"bufferView":0,"byteOffset":1176,"componentType":5126,"count":22,"max":[0.08977858983813244,-0.1,0.019999999999993533],"min":[-0.055,-0.1,-0.04999584642230947],"type":"VEC3"},{"bufferView":0,"byteOffset":1440,"componentType":5126,"count":16,"max":[0.055,0.0,0.019999999999993533],"min":[-0.055,-0.1,0.019999999999993533],"type":"VEC3"},{"bufferView":0,"byteOffset":1632,"componentType":5126,"count":4,"max":[0.04,0.0,0.019999999999993533],"min":[0.04,-0.009999999999999998,0.01],"type":"VEC3"},{"bufferView":0,"byteOffset":1680,"componentType":5126,"count":16,"max":[0.055,0.0,0.01],"min":[-0.045,-0.015,0.01],"type":"VEC3"},{"bufferView":0,"byteOffset":1872,"componentType":5126,"count":57,"max":[0.0799999786687346,0.0,0.01],"min":[0.029999978668734606,-0.05,-0.03987340382512809],"type":"VEC3"},{"bufferView":0,"byteOffset":2556,"componentType":5126,"count":4,"max":[0.030505081240902825,0.0,-0.01],"min":[-0.045,-0.015,-0.01000000000000038],"type":"VEC3"},{"bufferView":0,"byteOffset":2604,"componentType":5126,"count":4,"max":[-0.045,0.0,0.01],"min":[-0.045,-0.015,-0.01],"type":"VEC3"},{"bufferView":0,"byteOffset":2652,"componentType":5126,"count":4,"max":[-0.04,0.0,0.019999999999993533],"min":[-0.04,-0.009999999999999998,0.01],"type":"VEC3"},{"bufferView":0,"byteOffset":2700,"componentType":5126,"count":4,"max":[-0.024,-0.009999999999999997,0.019999999999993533],"min":[-0.04,-0.01,0.01],"type":"VEC3"},{"bufferView":0,"byteOffset":2748,"componentType":5126,"count":4,"max":[-0.024,0.0,0.019999999999993533],"min":[-0.024,-0.01,0.01],"type":"VEC3"},{"bufferView":0,"byteOffset":2796,"componentType":5126,"count":4,"max":[-0.008,0.0,0.019999999999993533],"min":[-0.024,0.0,0.01],"type":"VEC3"},{"bufferView":0,"byteOffset":2844,"componentType":5126,"count":4,"max":[-0.008,0.0,0.019999999999993533],"min":[-0.008,-0.01,0.01],"type":"VEC3"},{"bufferView":0,"byteOffset":2892,"componentType":5126,"count":4,"max":[0.008,-0.009999999999999998,0.019999999999993533],"min":[-0.008,-0.01,0.01],"type":"VEC3"},{"bufferView":0,"byteOffset":2940,"componentType":5126,"count":4,"max":[0.008,0.0,0.019999999999993533],"min":[0.008,-0.01,0.01],"type":"VEC3"},{"bufferView":0,"byteOffset":2988,"componentType":5126,"count":4,"max":[0.024,0.0,0.019999999999993533],"min":[0.008,0.0,0.01],"type":"VEC3"},{"bufferView":0,"byteOffset":3036,"componentType":5126,"count":4,"max":[0.024,0.0,0.019999999999993533],"min":[0.024,-0.009999999999999998,0.01],"type":"VEC3"},{"bufferView":0,"byteOffset":3084,"componentType":5126,"count":4,"max":[0.04,-0.009999999999999997,0.019999999999993533],"min":[0.024,-0.009999999999999998,0.01],"type":"VEC3"},{"bufferView":0,"byteOffset":3132,"componentType":5126,"count":9,"max":[0.055,-0.015,0.01],"min":[-0.045,-0.015,-0.01],"type":"VEC3"},{"bufferView":0,"byteOffset":3240,"componentType":5126,"count":26,"max":[0.0799999786687346,-0.05,0.009817721852451382],"min":[0.029999978668734606,-0.05,-0.03981772185245133],"type":"VEC3"},{"bufferView":1,"byteOffset":0,"componentType":5126,"count":4,"type":"VEC3"},{"bufferView":1,"byteOffset":48,"componentType":5126,"count":40,"type":"VEC3"},{"bufferView":1,"byteOffset":528,"componentType":5126,"count":4,"type":"VEC3"},{"bufferView":1,"byteOffset":576,"componentType":5126,"count":50,"type":"VEC3"},{"bufferView":1,"byteOffset":1176,"componentType":5126,"count":22,"type":"VEC3"},{"bufferView":1,"byteOffset":1440,"componentType":5126,"count":16,"type":"VEC3"},{"bufferView":1,"byteOffset":1632,"componentType":5126,"count":4,"type":"VEC3"},{"bufferView":1,"byteOffset":1680,"componentType":5126,"count":16,"type":"VEC3"},{"bufferView":1,"byteOffset":1872,"componentType":5126,"count":57,"type":"VEC3"},{"bufferView":1,"byteOffset":2556,"componentType":5126,"count":4,"type":"VEC3"},{"bufferView":1,"byteOffset":2604,"componentType":5126,"count":4,"type":"VEC3"},{"bufferView":1,"byteOffset":2652,"componentType":5126,"count":4,"type":"VEC3"},{"bufferView":1,"byteOffset":2700,"componentType":5126,"count":4,"type":"VEC3"},{"bufferView":1,"byteOffset":2748,"componentType":5126,"count":4,"type":"VEC3"},{"bufferView":1,"byteOffset":2796,"componentType":5126,"count":4,"type":"VEC3"},{"bufferView":1,"byteOffset":2844,"componentType":5126,"count":4,"type":"VEC3"},{"bufferView":1,"byteOffset":2892,"componentType":5126,"count":4,"type":"VEC3"},{"bufferView":1,"byteOffset":2940,"componentType":5126,"count":4,"type":"VEC3"},{"bufferView":1,"byteOffset":2988,"componentType":5126,"count":4,"type":"VEC3"},{"bufferView":1,"byteOffset":3036,"componentType":5126,"count":4,"type":"VEC3"},{"bufferView":1,"byteOffset":3084,"componentType":5126,"count":4,"type":"VEC3"},{"bufferView":1,"byteOffset":3132,"componentType":5126,"count":9,"type":"VEC3"},{"bufferView":1,"byteOffset":3240,"componentType":5126,"count":26,"type":"VEC3"},{"bufferView":2,"byteOffset":0,"componentType":5123,"count":6,"type":"SCALAR"},{"bufferView":2,"byteOffset":12,"componentType":5123,"count":114,"type":"SCALAR"},{"bufferView":2,"byteOffset":240,"componentType":5123,"count":6,"type":"SCALAR"},{"bufferView":2,"byteOffset":252,"componentType":5123,"count":144,"type":"SCALAR"},{"bufferView":2,"byteOffset":540,"componentType":5123,"count":60,"type":"SCALAR"},{"bufferView":2,"byteOffset":660,"componentType":5123,"count":42,"type":"SCALAR"},{"bufferView":2,"byteOffset":744,"componentType":5123,"count":6,"type":"SCALAR"},{"bufferView":2,"byteOffset":756,"componentType":5123,"count":42,"type":"SCALAR"},{"bufferView":2,"byteOffset":840,"componentType":5123,"count":165,"type":"SCALAR"},{"bufferView":2,"byteOffset":1172,"componentType":5123,"count":6,"type":"SCALAR"},{"bufferView":2,"byteOffset":1184,"componentType":5123,"count":6,"type":"SCALAR"},{"bufferView":2,"byteOffset":1196,"componentType":5123,"count":6,"type":"SCALAR"},{"bufferView":2,"byteOffset":1208,"componentType":5123,"count":6,"type":"SCALAR"},{"bufferView":2,"byteOffset":1220,"componentType":5123,"count":6,"type":"SCALAR"},{"bufferView":2,"byteOffset":1232,"componentType":5123,"count":6,"type":"SCALAR"},{"bufferView":2,"byteOffset":1244,"componentType":5123,"count":6,"type":"SCALAR"},{"bufferView":2,"byteOffset":1256,"componentType":5123,"count":6,"type":"SCALAR"},{"bufferView":2,"byteOffset":1268,"componentType":5123,"count":6,"type":"SCALAR"},{"bufferView":2,"byteOffset":1280,"componentType":5123,"count":6,"type":"SCALAR"},{"bufferView":2,"byteOffset":1292,"componentType":5123,"count":6,"type":"SCALAR"},{"bufferView":2,"byteOffset":1304,"componentType":5123,"count":6,"type":"SCALAR"},{"bufferView":2,"byteOffset":1316,"componentType":5123,"count":21,"type":"SCALAR"},{"bufferView":2,"byteOffset":1360,"componentType":5123,"count":72,"type":"SCALAR"}],"asset":{"generator":"Open CASCADE Technology 7.8 [dev.opencascade.org]","version":"2.0"},"bufferViews":[{"buffer":0,"byteLength":3552,"byteOffset":0,"byteStride":12,"target":34962},{"buffer":0,"byteLength":3552,"byteOffset":3552,"byteStride":12,"target":34962},{"buffer":0,"byteLength":1504,"byteOffset":7104,"target":34963}],"buffers":[{"byteLength":8608,"uri":"PartDesignExample-Body.bin"}],"materials":[{"name":"mat_0","pbrMetallicRoughness":{"baseColorFactor":[0.6038273572921753,0.6038273572921753,0.6038273572921753,1.0]},"doubleSided":true}],"meshes":[{"name":"Body","primitives":[{"attributes":{"NORMAL":23,"POSITION":0},"indices":46,"material":0,"mode":4},{"attributes":{"NORMAL":24,"POSITION":1},"indices":47,"material":0,"mode":4},{"attributes":{"NORMAL":25,"POSITION":2},"indices":48,"material":0,"mode":4},{"attributes":{"NORMAL":26,"POSITION":3},"indices":49,"material":0,"mode":4},{"attributes":{"NORMAL":27,"POSITION":4},"indices":50,"material":0,"mode":4},{"attributes":{"NORMAL":28,"POSITION":5},"indices":51,"material":0,"mode":4},{"attributes":{"NORMAL":29,"POSITION":6},"indices":52,"material":0,"mode":4},{"attributes":{"NORMAL":30,"POSITION":7},"indices":53,"material":0,"mode":4},{"attributes":{"NORMAL":31,"POSITION":8},"indices":54,"material":0,"mode":4},{"attributes":{"NORMAL":32,"POSITION":9},"indices":55,"material":0,"mode":4},{"attributes":{"NORMAL":33,"POSITION":10},"indices":56,"material":0,"mode":4},{"attributes":{"NORMAL":34,"POSITION":11},"indices":57,"material":0,"mode":4},{"attributes":{"NORMAL":35,"POSITION":12},"indices":58,"material":0,"mode":4},{"attributes":{"NORMAL":36,"POSITION":13},"indices":59,"material":0,"mode":4},{"attributes":{"NORMAL":37,"POSITION":14},"indices":60,"material":0,"mode":4},{"attributes":{"NORMAL":38,"POSITION":15},"indices":61,"material":0,"mode":4},{"attributes":{"NORMAL":39,"POSITION":16},"indices":62,"material":0,"mode":4},{"attributes":{"NORMAL":40,"POSITION":17},"indices":63,"material":0,"mode":4},{"attributes":{"NORMAL":41,"POSITION":18},"indices":64,"material":0,"mode":4},{"attributes":{"NORMAL":42,"POSITION":19},"indices":65,"material":0,"mode":4},{"attributes":{"NORMAL":43,"POSITION":20},"indices":66,"material":0,"mode":4},{"attributes":{"NORMAL":44,"POSITION":21},"indices":67,"material":0,"mode":4},{"attributes":{"NORMAL":45,"POSITION":22},"indices":68,"material":0,"mode":4}]}],"nodes":[{"mesh":0,"name":"Body"}],"scene":0,"scenes":[{"nodes":[0]}]}